# This file uses centimeters as units for non-parametric coordinates.

mtllib Barricade 2.mtl
g default
v -0.250000 0.000000 0.999999
v 0.250000 0.000000 0.999999
v -0.250000 0.000000 -1.000000
v 0.250000 0.000000 -1.000000
v -0.250000 0.125013 0.999999
v -0.125013 0.250000 0.999999
v -0.250000 0.125013 -1.000000
v -0.125013 0.250000 -1.000000
v 0.125013 0.250000 0.999999
v 0.250000 0.125013 0.999999
v 0.250000 0.125013 -1.000000
v 0.125013 0.250000 -1.000000
v -0.125013 0.750000 -1.000000
v -0.125013 0.750000 0.999999
v 0.125013 0.750000 0.999999
v 0.125013 0.750000 -1.000000
vt 0.810196 0.012829
vt 0.996081 0.304609
vt 0.810218 0.441362
vt 0.810213 0.397538
vt 0.934178 0.211569
vt 0.810196 0.043824
vt 0.190336 0.211619
vt 0.810197 0.211592
vt 0.810199 0.273576
vt 0.190336 0.273611
vt 0.190340 0.472403
vt 0.190338 0.441406
vt 0.004395 0.180658
vt 0.190344 0.043826
vt 0.190342 0.087651
vt 0.066344 0.273605
vt 0.066348 0.211627
vt 0.190337 0.397581
vt 0.035357 0.304573
vt 0.004374 0.304568
vt 0.810194 0.087643
vt 0.934145 0.273560
vt 0.810221 0.472358
vt 0.965093 0.304575
vt 0.035373 0.180658
vt 0.190344 0.012831
vt 0.996222 0.180635
vt 0.965217 0.180601
vn 0.000000 0.000000 1.000000
vn 0.000000 0.000000 1.000000
vn 0.000000 0.000000 1.000000
vn 0.000000 0.000000 1.000000
vn 0.000000 0.000000 1.000000
vn 0.000000 0.000000 1.000000
vn 0.000000 1.000000 0.000000
vn 0.000000 1.000000 0.000000
vn 0.000000 1.000000 0.000000
vn 0.000000 1.000000 0.000000
vn 1.000000 0.000000 0.000000
vn 1.000000 0.000000 0.000000
vn 1.000000 0.000000 0.000000
vn 1.000000 0.000000 0.000000
vn -1.000000 0.000000 0.000000
vn -1.000000 0.000000 0.000000
vn -1.000000 0.000000 0.000000
vn -1.000000 0.000000 0.000000
vn 0.000000 0.000000 -1.000000
vn 0.000000 0.000000 -1.000000
vn 0.000000 0.000000 -1.000000
vn 0.000000 0.000000 -1.000000
vn 0.000000 0.000000 -1.000000
vn 0.000000 0.000000 -1.000000
vn -0.707107 0.707107 0.000000
vn -0.707107 0.707107 0.000000
vn -0.707107 0.707107 0.000000
vn -0.707107 0.707107 0.000000
vn 0.707107 0.707107 0.000000
vn 0.707107 0.707107 0.000000
vn 0.707107 0.707107 0.000000
vn 0.707107 0.707107 0.000000
vn -1.000000 0.000000 0.000000
vn -1.000000 0.000000 0.000000
vn -1.000000 0.000000 0.000000
vn -1.000000 0.000000 0.000000
vn 0.000000 0.000000 1.000000
vn 0.000000 0.000000 1.000000
vn 0.000000 0.000000 1.000000
vn 0.000000 0.000000 1.000000
vn 1.000000 0.000000 0.000000
vn 1.000000 0.000000 0.000000
vn 1.000000 0.000000 0.000000
vn 1.000000 0.000000 0.000000
vn 0.000000 0.000000 -1.000000
vn 0.000000 0.000000 -1.000000
vn 0.000000 0.000000 -1.000000
vn 0.000000 0.000000 -1.000000
s off
g pCube68
usemtl lambert3SG
f 1/27/1 2/2/2 10/24/3 9/22/4 6/5/5 5/28/6
f 13/7/7 14/8/8 15/9/9 16/10/10
f 2/23/11 4/11/12 11/12/13 10/3/14
f 3/26/15 1/1/16 5/6/17 7/14/18
f 7/25/19 8/17/20 12/16/21 11/19/22 4/20/23 3/13/24
f 5/6/25 6/21/26 8/15/27 7/14/28
f 9/4/29 10/3/30 11/12/31 12/18/32
f 8/15/33 6/21/34 14/8/35 13/7/36
f 6/5/37 9/22/38 15/9/39 14/8/40
f 9/4/41 12/18/42 16/10/43 15/9/44
f 12/16/45 8/17/46 13/7/47 16/10/48
