# This file uses centimeters as units for non-parametric coordinates.

mtllib Barricade 1.mtl
g default
v 0.250000 -0.000000 -1.000000
v -0.250000 -0.000000 -1.000000
v 0.250000 -0.000000 1.000000
v -0.250000 -0.000000 1.000000
v 0.250000 0.125013 -1.000000
v 0.125013 0.250000 -1.000000
v 0.250000 0.125013 1.000000
v 0.125013 0.250000 1.000000
v -0.125013 0.250000 -1.000000
v -0.250000 0.125013 -1.000000
v -0.250000 0.125013 1.000000
v -0.125013 0.250000 1.000000
v 0.125013 0.750000 1.000000
v 0.125013 0.750000 -1.000000
v -0.125013 0.750000 -1.000000
v -0.125013 0.750000 1.000000
vt 0.810196 0.526570
vt 0.996081 0.818350
vt 0.810218 0.955103
vt 0.810213 0.911279
vt 0.934178 0.725311
vt 0.810196 0.557565
vt 0.190336 0.725361
vt 0.810197 0.725333
vt 0.810199 0.787317
vt 0.190336 0.787353
vt 0.190340 0.986145
vt 0.190338 0.955147
vt 0.004395 0.694399
vt 0.190344 0.557567
vt 0.190342 0.601392
vt 0.066344 0.787346
vt 0.066348 0.725368
vt 0.190337 0.911322
vt 0.035357 0.818314
vt 0.004374 0.818309
vt 0.810194 0.601384
vt 0.934145 0.787302
vt 0.810221 0.986099
vt 0.965093 0.818316
vt 0.035373 0.694399
vt 0.190344 0.526572
vt 0.996222 0.694376
vt 0.965217 0.694342
vn -0.000000 0.000000 -1.000000
vn -0.000000 0.000000 -1.000000
vn -0.000000 0.000000 -1.000000
vn -0.000000 0.000000 -1.000000
vn -0.000000 0.000000 -1.000000
vn -0.000000 0.000000 -1.000000
vn -0.000000 1.000000 0.000000
vn -0.000000 1.000000 0.000000
vn -0.000000 1.000000 0.000000
vn -0.000000 1.000000 0.000000
vn -1.000000 0.000000 0.000000
vn -1.000000 0.000000 0.000000
vn -1.000000 0.000000 0.000000
vn -1.000000 0.000000 0.000000
vn 1.000000 0.000000 -0.000000
vn 1.000000 0.000000 -0.000000
vn 1.000000 0.000000 -0.000000
vn 1.000000 0.000000 -0.000000
vn 0.000000 0.000000 1.000000
vn 0.000000 0.000000 1.000000
vn 0.000000 0.000000 1.000000
vn 0.000000 0.000000 1.000000
vn 0.000000 0.000000 1.000000
vn 0.000000 0.000000 1.000000
vn 0.707107 0.707107 -0.000000
vn 0.707107 0.707107 -0.000000
vn 0.707107 0.707107 -0.000000
vn 0.707107 0.707107 -0.000000
vn -0.707107 0.707107 0.000000
vn -0.707107 0.707107 0.000000
vn -0.707107 0.707107 0.000000
vn -0.707107 0.707107 0.000000
vn 1.000000 0.000000 -0.000000
vn 1.000000 0.000000 -0.000000
vn 1.000000 0.000000 -0.000000
vn 1.000000 0.000000 -0.000000
vn -0.000000 0.000000 -1.000000
vn -0.000000 0.000000 -1.000000
vn -0.000000 0.000000 -1.000000
vn -0.000000 0.000000 -1.000000
vn -1.000000 0.000000 0.000000
vn -1.000000 0.000000 0.000000
vn -1.000000 0.000000 0.000000
vn -1.000000 0.000000 0.000000
vn 0.000000 0.000000 1.000000
vn 0.000000 0.000000 1.000000
vn 0.000000 0.000000 1.000000
vn 0.000000 0.000000 1.000000
s off
g pCube67
usemtl lambert3SG
f 1/27/1 2/2/2 10/24/3 9/22/4 6/5/5 5/28/6
f 13/7/7 14/8/8 15/9/9 16/10/10
f 2/23/11 4/11/12 11/12/13 10/3/14
f 3/26/15 1/1/16 5/6/17 7/14/18
f 7/25/19 8/17/20 12/16/21 11/19/22 4/20/23 3/13/24
f 5/6/25 6/21/26 8/15/27 7/14/28
f 9/4/29 10/3/30 11/12/31 12/18/32
f 8/15/33 6/21/34 14/8/35 13/7/36
f 6/5/37 9/22/38 15/9/39 14/8/40
f 9/4/41 12/18/42 16/10/43 15/9/44
f 12/16/45 8/17/46 13/7/47 16/10/48
